<?xml version="1.0" encoding="utf-8"?>
<!-- Generator: Adobe Illustrator 25.2.1, SVG Export Plug-In . SVG Version: 6.00 Build 0)  -->
<svg version="1.1" id="Layer_1" xmlns="http://www.w3.org/2000/svg" xmlns:xlink="http://www.w3.org/1999/xlink" x="0px" y="0px"
	 viewBox="0 0 456.8 127.6" style="enable-background:new 0 0 456.8 127.6;" xml:space="preserve">
<g>
	<g>
		<path style="fill:#FFFFFF;" d="M197.9,29.9c-0.1-0.2-0.3-0.4-0.5-0.4h-13.4c-0.2,0-0.5,0.1-0.5,0.4l-26.6,68.2
			c-0.1,0.2,0,0.4,0.1,0.5c0.1,0.2,0.3,0.3,0.5,0.3h12.2c0.2,0,0.5-0.2,0.5-0.4l6.2-16.8h28.1l6.3,16.8c0.1,0.2,0.3,0.4,0.5,0.4
			h12.6c0.2,0,0.4-0.1,0.5-0.3c0.1-0.2,0.1-0.4,0.1-0.5L197.9,29.9z M199.9,70h-19.1l9.6-25.7L199.9,70z"/>
		<path style="fill:#FFFFFF;" d="M270.7,51.5c0-0.3-0.3-0.6-0.6-0.6h-11.2c-0.3,0-0.6,0.3-0.6,0.6v27.7c0,6.2-3.5,9.9-9.2,9.9
			c-8,0-8.9-7.1-8.9-10.1V51.5c0-0.3-0.3-0.6-0.6-0.6h-11.2c-0.3,0-0.6,0.3-0.6,0.6v29.5c0,11.3,7.5,19.3,18.3,19.3
			c5.3,0,10.1-2,12.8-5.3c0.1,1.4,0.2,2.7,0.3,3.5c0,0.3,0.3,0.5,0.6,0.5h10.7c0.2,0,0.3-0.1,0.4-0.2c0.1-0.1,0.2-0.3,0.1-0.5
			c-0.1-1.1-0.5-4.3-0.5-8.5V51.5z"/>
		<path style="fill:#FFFFFF;" d="M326.1,28.7c0-0.3-0.3-0.6-0.6-0.6h-10.9c-0.3,0-0.6,0.3-0.6,0.6V55c-1.7-2.2-5.5-5.3-13.2-5.3
			c-13.1,0-22.9,10.8-22.9,25.1c0,14.9,9.5,25.3,23.1,25.3c6.4,0,10.8-2.9,13.2-6c0.1,1.7,0.3,3.6,0.4,4.3c0.1,0.3,0.3,0.5,0.6,0.5
			H326c0.2,0,0.3-0.1,0.4-0.2c0.1-0.1,0.2-0.3,0.1-0.5c0-0.2-0.5-3.9-0.5-8.5V28.7z M302.3,89.1c-7.3,0-12-5.6-12-14.3
			c0-8.4,4.9-14,12.1-14c7.1,0,11.7,5.5,11.7,14C314.1,83.3,309.4,89.1,302.3,89.1z"/>
		<path style="fill:#FFFFFF;" d="M357.9,70l-7.1-1.4c-2.7-0.5-4.2-2.2-4.2-4.3c0-2.7,2.7-4.8,6.2-4.8c6.6,0,7.9,5,8.1,6.5
			c0,0.2,0.1,0.3,0.3,0.4c0.1,0.1,0.3,0.1,0.5,0.1l9.4-2.7c0.3-0.1,0.5-0.4,0.4-0.7c-1-6.3-6.6-13.6-18.7-13.6
			c-9.8,0-17.8,7-17.8,15.7c0,7.1,4.9,12.4,13.1,14.2l6.9,1.5c2.3,0.5,5,1.7,5,4.6c0,2.4-2,4.8-6.4,4.8c-6.1,0-8.6-4-9-7.5
			c0-0.2-0.1-0.3-0.2-0.4c-0.1-0.1-0.3-0.1-0.5-0.1l-9.7,2.7c-0.3,0.1-0.5,0.3-0.4,0.6c0.4,3.3,2.2,6.8,5,9.4
			c3.7,3.4,8.8,5.2,14.9,5.2c12,0,18.3-7.8,18.3-15.6C371.8,77.3,366.7,71.9,357.9,70z"/>
		<path style="fill:#FFFFFF;" d="M420.3,67.6c0-11.3-7.7-18.1-20.5-18.1c-12.8,0-19.5,8.2-20.3,15.8c0,0.3,0.2,0.6,0.4,0.6l10.2,2.3
			c0.2,0,0.3,0,0.5-0.1c0.1-0.1,0.2-0.2,0.2-0.4c0.4-3.8,3-7.9,9-7.9c5.3,0,8.3,2.4,8.3,6.5c0,1.1-0.3,2.4-3,2.8l-12,1.8
			c-9.2,1.3-14.6,6.8-14.6,14.7c0,7.1,5.8,14.7,16.5,14.7c7.5,0,11.8-3.6,13.9-6.2c0.1,2.6,0.4,4,0.5,4.4c0.1,0.2,0.3,0.4,0.6,0.4
			h10.4c0.2,0,0.3-0.1,0.4-0.2c0.1-0.1,0.2-0.3,0.1-0.5c0-0.1-0.6-2.9-0.6-7.4V67.6z M408.2,77.5v1.4c0,9.5-6,11.5-11.1,11.5
			c-4.3,0-6.3-2.8-6.3-5.5c0-4.2,3.6-5.4,5.8-5.8L408.2,77.5z"/>
		<path style="fill:#FFFFFF;" d="M456.6,88.2c-0.1-0.1-0.3-0.2-0.5-0.1c-0.4,0.1-2.2,0.4-3.7,0.4c-3.9,0-5.4-1.5-5.4-5.3V62h9.1
			c0.3,0,0.6-0.3,0.6-0.6v-9.9c0-0.3-0.3-0.6-0.6-0.6H447V37.2c0-0.3-0.3-0.6-0.6-0.6h-10.1c-0.3,0-0.6,0.3-0.6,0.6v7
			c0,4.3-2.4,6.7-6.6,6.7h-2.4c-0.3,0-0.6,0.3-0.6,0.6v9.9c0,0.3,0.3,0.6,0.6,0.6h8.1v23c0,9,5.6,14.5,14.6,14.5
			c3.9,0,6.1-0.7,7.1-1.1c0.2-0.1,0.4-0.3,0.4-0.5v-9.2C456.8,88.5,456.8,88.3,456.6,88.2z"/>
	</g>
	<g>
		<path style="fill:#8DC63F;" d="M127.6,56.6C125.1,35,111.8,16.7,93.3,7.1L69.1,56.6H127.6z"/>
		<path style="fill:#D7DF23;" d="M22.9,112.6L77.3,1.4C73,0.5,68.5,0,64,0C28.7,0,0,28.6,0,63.8C0,83.4,8.9,100.9,22.9,112.6z"/>
		<path style="fill:#008C44;" d="M60.9,73.4l-23.6,48.3c8.1,3.7,17.2,5.9,26.7,5.9c32,0,58.6-23.5,63.3-54.1H60.9z"/>
	</g>
</g>
</svg>
